<svg xmlns="http://www.w3.org/2000/svg" width="70" height="20" viewBox="0 0 70 20">
  <g id="adwiti_logo" data-name="adwiti logo" transform="translate(-3.163 -6.22)">
    <path id="Path_15" data-name="Path 15" d="M152.14,268.57a50.322,50.322,0,0,1,8.87,8.69c2.5,3.31,5.26,6.44,7.49,9.92a72.39,72.39,0,0,1,10.82,30.07A75.86,75.86,0,0,1,150.89,387c-.28.22-.59.4-.89.6a10.16,10.16,0,0,1-.23-1.52c.06-4.55.15-9.1.23-13.65l.24-14.12.24-14.61.24-13.89.24-14.37.24-14.24c.08-4.75.17-9.5.24-14.25.09-5.71.15-11.42.26-17.13a4.449,4.449,0,0,1,.44-1.25Z" transform="translate(-24.72 -148.8)" fill="#f6f6f6"/>
    <path id="Path_16" data-name="Path 16" d="M508.54,323q-.12,10.13-.23,20.25v7.47H483.36c.26-6.35.52-12.75.78-19.15l-.22-.12-.7,1c-2.44,3.35-4.63,6.93-7.39,10A32.79,32.79,0,0,1,456,353.28c-16.93,2.69-31.86-6-39.59-20.31a49,49,0,0,1-5.07-14H438.2a5.94,5.94,0,0,0,1.22-.27c1,1.3,1.87,2.64,2.89,3.89A20,20,0,0,0,467,327.8a26.2,26.2,0,0,0,6.46-5.26,6.932,6.932,0,0,0,1.78.48Q491.89,323.07,508.54,323Z" transform="translate(-24.72 -148.8)" fill="#fff"/>
    <path id="Path_17" data-name="Path 17" d="M299.9,285.82q2.19-5.26,4.39-10.54l6-14.3c.12-.29.28-.56.43-.84h26.22c-1.38,3.55-2.75,7.11-4.14,10.72h35.56c-.13-.52-.24-.94-.35-1.36l-2.55-9.59h26.18c1.36,4.49,2.74,9,4.08,13.49,1.23,4.14,2.41,8.29,3.62,12.43a17.18,17.18,0,0,1-2,.23H304C302.6,286.07,301.25,285.91,299.9,285.82Z" transform="translate(-24.72 -148.8)" fill="#fff"/>
    <path id="Path_18" data-name="Path 18" d="M299.9,285.82c1.35.09,2.7.25,4.05.25h93.4a17.18,17.18,0,0,0,2-.23c1.28,4.23,2.58,8.45,3.85,12.68q2.1,7.05,4.17,14.1c.08.26.12.54.18.81a10.3,10.3,0,0,1-1.64.24H379c-1.73-5.85-3.47-11.7-5.16-17.56a1.34,1.34,0,0,0-1.55-1.17H325.55A1.4,1.4,0,0,0,324,296c-2,5.18-4,10.33-6,15.49-.13.33-.3.65-.45,1H288.7c2.12-5.12,4.23-10.23,6.38-15.34C296.67,293.36,298.29,289.6,299.9,285.82Z" transform="translate(-24.72 -148.8)" fill="#fff"/>
    <path id="Path_19" data-name="Path 19" d="M419.26,257.76A49.54,49.54,0,0,1,434.62,240c6.21-4.51,13.27-6.88,20.74-8.19,9.17-1.61,18.3-1.05,27.42.38l3.38.52c.08-.79.15-1.57.23-2.34h25.43q-.24,5.87-.49,11.73c-.1,2.48-.23,4.95-.35,7.42-.09,1.86-.18,3.72-.28,5.58H485.28c-.24-.23-.44-.58-.72-.66a44,44,0,0,0-11.54-2c-7.71-.16-15,1.42-21.51,5.77a11.641,11.641,0,0,0-1.74-.27H421.26a17.258,17.258,0,0,1-2-.18Z" transform="translate(-24.72 -148.8)" fill="#fff"/>
    <path id="Path_20" data-name="Path 20" d="M322.25,232.77c1.27-3.08,2.56-6.15,3.81-9.24q5.82-14.49,11.6-29a1.45,1.45,0,0,1,1.63-1.11c8.27.1,16.55.15,24.82.2h8.59c.56,2,1.17,4.15,1.79,6.32q4.45,15.78,8.92,31.55a3.166,3.166,0,0,0,.1.59H357.83c-1.32-4.64-2.63-9.28-4-14.21l-6,14.93a17,17,0,0,1-2,.23h-22A8.672,8.672,0,0,1,322.25,232.77Z" transform="translate(-24.72 -148.8)" fill="#fff"/>
    <path id="Path_21" data-name="Path 21" d="M208.61,184c1.2,1.77,2.5,3.49,3.6,5.33a98.34,98.34,0,0,1,12.57,35.79c.53,4,.76,8.06,1.25,12.07,1,8.38.43,16.79.49,25.18.11,15.43,0,30.86,0,46.29v.95h-.69a.21.21,0,0,1-.07-.17c-.17-.35-.35-.71-.52-1.07-.3-.61-.6-1.22-.89-1.83-.22-.34-.43-.68-.64-1a.32.32,0,0,1-.09-.17L223,304.3l-.36-.65-.36-.55-1.84-2.77c-.12-.19-.25-.38-.38-.57l-1.25-1.88-.38-.55-.81-1.15-.39-.52-1.55-1.85-.66-.77-7-7.37c-.08-.18-.15-.36-.22-.54l1.46-.13v-8.68c.05-4.75.15-9.5.23-14.24l.24-13.88c.08-5.27.15-10.53.24-15.8.07-4.14.17-8.29.24-12.44l.24-15.07c.08-5.15.1-10.3.29-15.44a3.89,3.89,0,0,0-.77-2.68,17.7,17.7,0,0,1-1.36-2.77Z" transform="translate(-24.72 -148.8)" fill="#fff"/>
    <path id="Path_22" data-name="Path 22" d="M152.14,268.57a4.451,4.451,0,0,0-.44,1.25c-.11,5.71-.17,11.42-.26,17.13-.07,4.75-.16,9.5-.24,14.25l-.2,14.24-.24,14.37-.24,13.89-.24,14.61L150,372.43c-.08,4.55-.17,9.1-.23,13.65a10.159,10.159,0,0,0,.23,1.52,63.47,63.47,0,0,1-12.24,7.63L138,382l.24-14.84c.08-4.59.17-9.18.24-13.77.09-5.58.15-11.17.24-16.76.07-3.9.17-7.81.24-11.72.09-4.95.16-9.89.24-14.84.08-4.51.17-9,.24-13.52.08-5.31.17-10.62.23-15.92v-8.52c0-2-.23-4.13,1.2-5.89l1.92-.25.72-.21c.58-.09,1.17-.14,1.74-.28.79-.2,1.57-.46,2.35-.69l1.17.19c-.28.33-.58.58,0,1C149.94,266.75,151,267.68,152.14,268.57Z" transform="translate(-24.72 -148.8)" fill="#f6f6f6"/>
    <path id="Path_23" data-name="Path 23" d="M752.92,317c.22,1.29.42,2.59.68,3.87,1.3,6.51,6.11,10,12.64,8.91,3.56-.6,7-1.69,10.55-2.57.31-.07.61-.17,1.11-.31-.28,1.82-.54,3.53-.8,5.24-.87,5.79-1.72,11.59-2.63,17.38a1.53,1.53,0,0,1-.84,1,67.74,67.74,0,0,1-22.3,3.14,36.329,36.329,0,0,1-11.27-2c-7-2.65-10.94-8-12.6-15.15a52.261,52.261,0,0,1-1.05-16.07c.09-1.15.11-2.31.17-3.47Z" transform="translate(-24.72 -148.8)" fill="#fff"/>
    <path id="Path_24" data-name="Path 24" d="M208.61,184a17.7,17.7,0,0,0,1.39,2.79,3.89,3.89,0,0,1,.77,2.68c-.19,5.14-.21,10.29-.29,15.44L210.24,220c-.07,4.15-.17,8.3-.24,12.44-.09,5.27-.16,10.53-.24,15.8l-.24,13.88c-.08,4.74-.18,9.49-.23,14.24v8.68l-1.46.13h-.5l-1.38-1.28-.54-.4-.67-.55-.53-.41-.67-.55-.53-.41-.43-.31-.79-.64a.25.25,0,0,1-.17-.08l-.53-.41-.68-.51-.56-.41a.21.21,0,0,1-.15-.09l-.54-.42-.41-.33-.58-.37a.24.24,0,0,1-.15-.09l-1-.64a.24.24,0,0,1-.15-.09l-.57-.39a.21.21,0,0,1-.16-.08l-1-.66h0c-.07-.18-.14-.35-.22-.52.71.06.73-.4.74-.93q.1-6.33.23-12.67c.08-3.75.17-7.5.24-11.24.09-4.87.16-9.73.24-14.6l.24-13.52.24-14.47c.08-4.63.17-9.26.24-13.88.09-6.59.15-13.17.26-19.75a10.662,10.662,0,0,1,.48-2.18l.7.6.78.62,1.35,1.32.65.65.55.56c.22.21.43.42.64.64s.38.37.56.56l.65.64.55.55,2.48,3h0c-.09.87.42,1.27,1.16,1.5h0c.24.32.48.63.71,1A.1.1,0,0,1,208.61,184Z" transform="translate(-24.72 -148.8)" fill="#fff"/>
    <path id="Path_25" data-name="Path 25" d="M127.68,399.34l-10.05,2.57.21-13.89.24-14.36.24-14.48c.08-4.67.17-9.34.24-14,.08-5.47.15-10.94.24-16.41.07-4,.17-8,.24-12.08l.24-14.72.24-13.64.24-15,1.4-.51.52-.46,5.76-2.64.75-.46h.45l2.4-.49c-.51.58-1.23.94-1.23,1.93,0,1.82-.17,3.65-.2,5.48-.1,5.23-.16,10.45-.25,15.68-.07,4.19-.17,8.37-.24,12.56l-.24,15L128.64,333l-.24,14.47c-.08,4.71-.17,9.42-.24,14.12q-.14,9.28-.24,18.56Z" transform="translate(-24.72 -148.8)" fill="#f6f6f6"/>
    <path id="Path_26" data-name="Path 26" d="M127.68,399.34l.24-19.15q.12-9.29.24-18.56c.07-4.7.16-9.41.24-14.12l.24-14.47.24-13.64.24-15c.07-4.19.17-8.37.24-12.56.09-5.23.15-10.45.25-15.68,0-1.83.22-3.66.2-5.48,0-1,.72-1.35,1.23-1.93l1.21-.45.47-.24,8.16-1.93c-1.43,1.76-1.2,3.85-1.2,5.89v8.52c-.06,5.3-.15,10.61-.23,15.92-.07,4.5-.16,9-.24,13.52-.08,5-.15,9.89-.24,14.84-.07,3.91-.17,7.82-.24,11.72-.09,5.59-.15,11.18-.24,16.76-.07,4.59-.16,9.18-.24,13.77L138,382l-.24,13.28Z" transform="translate(-24.72 -148.8)" fill="#f6f6f6"/>
    <path id="Path_27" data-name="Path 27" d="M108.72,403l-8.19.14a4.559,4.559,0,0,0-.45-.74c-.55-.61-1.12-1.19-1.69-1.78-.08-3.39-.2-6.77-.21-10.16,0-2.07.17-4.14.22-6.21q.13-6.16.24-12.32l.24-14.73.24-13.88.24-14.48c.08-4.63.18-9.26.24-13.88.09-7.15.13-14.3.26-21.44,0-2,.3-4,.46-5.93l7.44-6.75c.26-.15.54-.28.79-.44l2.32-1.5c-.08,1.3-.19,2.61-.22,3.92-.1,4.59-.17,9.18-.25,13.77L110.16,311l-.24,13.88-.24,14.6-.24,14-.24,14.24c-.08,4.71-.17,9.41-.24,14.12Q108.83,392.43,108.72,403Z" transform="translate(-24.72 -148.8)" fill="#f6f6f6"/>
    <path id="Path_28" data-name="Path 28" d="M716.41,245V234.77H730.8c.37-7.65.73-15.21,1.09-22.74l24.25-6.41q-.37,14.41-.75,29.08h23.75c-.14,3.51-.27,6.92-.4,10.33Z" transform="translate(-24.72 -148.8)" fill="#fff"/>
    <path id="Path_29" data-name="Path 29" d="M555.42,299q2,7.94,4,15.86a48.692,48.692,0,0,0,1.32,4.76q2.28-7.8,4.55-15.58h20.57c-1.1,3.83-2.17,7.67-3.28,11.5q-2,6.84-4,13.66c-.12.42-.28.82-.43,1.23h-37q-3.23-11.92-6.43-23.84c-.64-2.38-1.27-4.77-1.91-7.15h20.84a6.852,6.852,0,0,0,1.77-.44Z" transform="translate(-24.72 -148.8)" fill="#fff"/>
    <path id="Path_30" data-name="Path 30" d="M181.4,223v-.4a3.44,3.44,0,0,0,0-1.06c-.87-2.75-1.67-5.52-2.69-8.22a35.65,35.65,0,0,0-4.72-8.92c-1.62-2.17-3.36-4.23-5-6.35a17.559,17.559,0,0,0,.72-3.22c.15-4.62.21-9.23.27-13.85q.14-10.87.24-21.76v-1.37c-1.39-.32-2.62-.59-3.83-.9-.19,0-.32-.32-.48-.48,1.74.38,3.51.65,5.22,1.14a71.841,71.841,0,0,1,17.3,7.69,5.711,5.711,0,0,1,.88.76,11,11,0,0,1-1.63-.64c-.82-.47-1.1-.15-1.14.65-.08,1.59-.2,3.18-.23,4.77-.1,4.82-.17,9.65-.25,14.48l-.24,13.64-.3,15.04-.24,13.16c-.08,4.87-.18,9.74-.24,14.6-.09,8.59-.14,17.18-.27,25.76a11.81,11.81,0,0,1-.69,2.72c-.39-.09-.78-.15-1.15-.27-2.06-.71-4.09-1.48-6.17-2.12a33.638,33.638,0,0,0-3.48-.76l-.69-.07-1.71-.64a7,7,0,0,0,.23-1.16c.1-3.22.2-6.43.24-9.65s0-6.37,0-9.56c1.91-.08,3.81-.21,5.72-.22,1.63,0,3.26.09,4.88.21,1.14.09,1.46-.39,1.42-1.46-.12-3.46,0-6.94-.29-10.39s-.77-7.07-1.2-10.6C181.86,223.34,181.57,223.16,181.4,223Z" transform="translate(-24.72 -148.8)" fill="#fff"/>
    <path id="Path_31" data-name="Path 31" d="M184.08,270.25a11.809,11.809,0,0,0,.69-2.72c.13-8.58.18-17.17.27-25.76.06-4.86.16-9.73.24-14.6l.24-13.16.24-15.09.24-13.64c.08-4.83.15-9.66.25-14.48,0-1.59.15-3.18.23-4.77,0-.8.32-1.12,1.14-.65a11,11,0,0,0,1.63.64l3.46,2.26.55.41,2.57,2,.54.43,1.41,1.18a10.659,10.659,0,0,0-.48,2.18c-.11,6.58-.17,13.16-.26,19.75-.07,4.62-.16,9.25-.24,13.88l-.24,14.47-.24,13.52c-.08,4.87-.15,9.73-.24,14.6-.07,3.74-.16,7.49-.24,11.24q-.12,6.33-.23,12.67c0,.53,0,1-.74.93-.61-.26-1.22-.54-1.84-.79-.86-.35-1.73-.67-2.59-1l-.35-.15-.6-.34-.36-.14-.6-.35-.83-.39c-.21-.1-.41-.21-.61-.32l-.36-.14a5.487,5.487,0,0,0-.82-.71A17.785,17.785,0,0,0,184.08,270.25Z" transform="translate(-24.72 -148.8)" fill="#fff"/>
    <path id="Path_32" data-name="Path 32" d="M288.7,312.48h28.8c-1.83,4.85-3.68,9.69-5.49,14.55q-4.22,11.27-8.36,22.56a1.64,1.64,0,0,1-1.86,1.31c-7-.12-13.9-.16-20.86-.21h-8.95a8.214,8.214,0,0,1,.28-.84q8.08-18.49,16.18-37a3.3,3.3,0,0,1,.26-.37Z" transform="translate(-24.72 -148.8)" fill="#fff"/>
    <path id="Path_33" data-name="Path 33" d="M108.72,403q.12-10.53.24-21.08c.07-4.71.16-9.41.24-14.12l.24-14.24.24-14,.24-14.6.24-13.88.24-14.48c.08-4.59.15-9.18.25-13.77,0-1.31.14-2.62.22-3.92a10.541,10.541,0,0,1,1-.87c2.13-1.4,4.28-2.77,6.42-4.15l1.44-.47-.24,15L119.28,302,119,316.69c-.07,4-.17,8.06-.24,12.08-.09,5.47-.16,10.94-.24,16.41-.07,4.66-.16,9.33-.24,14l-.24,14.48-.2,14.34-.21,13.89Z" transform="translate(-24.72 -148.8)" fill="#f6f6f6"/>
    <path id="Path_34" data-name="Path 34" d="M379,313.68h26.92a10.3,10.3,0,0,0,1.64-.24q1.8,6,3.61,11.89L418.42,349c.17.56.3,1.13.47,1.75H388.7c-1-3.95-1.87-7.95-2.92-11.91-2.19-8.25-4.46-16.47-6.69-24.71A1.634,1.634,0,0,1,379,313.68Z" transform="translate(-24.72 -148.8)" fill="#fff"/>
    <path id="Path_35" data-name="Path 35" d="M716.41,245h62.33v12h-24c-.17,3.61-.32,7.1-.48,10.59H728.83V257.07h-13C716,253,716.21,249,716.41,245Z" transform="translate(-24.72 -148.8)" fill="#fff"/>
    <path id="Path_36" data-name="Path 36" d="M511.82,230.39H486.39c.16-7.67.36-15.34.48-23,.06-4.59,0-9.19,0-13.84h27q-.2,3.4-.4,6.86c-.37,6.34-.76,12.68-1.12,19C512.19,223.09,512,226.74,511.82,230.39Z" transform="translate(-24.72 -148.8)" fill="#fff"/>
    <path id="Path_37" data-name="Path 37" d="M573.1,277c1-3.45,1.9-6.9,2.89-10.35q1.965-6.9,4-13.79a7.84,7.84,0,0,0,2.09.6q15.9.06,31.79,0a11.939,11.939,0,0,0,1.77-.24c.74,3.43,1.5,6.85,2.23,10.27.92,4.33,1.81,8.67,2.71,13H598.85l-2-9.48c-1.07,3.58-2.07,6.89-3.06,10.2H574.6A9.751,9.751,0,0,1,573.1,277Z" transform="translate(-24.72 -148.8)" fill="#fff"/>
    <path id="Path_38" data-name="Path 38" d="M657.08,302.16q-2.67,7.68-5.36,15.35c-1.28,3.62-2.59,7.23-3.88,10.84H609.37c-.53-2.46-1.08-4.91-1.58-7.37-.73-3.61-1.42-7.23-2.13-10.85h21.93c.41,2.07.83,4.14,1.23,6.21a19.742,19.742,0,0,0,.77,3.29c.37-1.24.73-2.48,1.12-3.71l4.53-14.25a6.867,6.867,0,0,0,1.33.29h17.2A32.848,32.848,0,0,1,657.08,302.16Z" transform="translate(-24.72 -148.8)" fill="#fff"/>
    <path id="Path_39" data-name="Path 39" d="M809.71,318.48c-.06,5.55-.14,11.1-.18,16.66v15.62H781.21c.1-1.57.19-3.18.3-4.79.29-4,.63-8,.88-12,.3-4.74.52-9.49.79-14.24a9.717,9.717,0,0,1,.17-1.06h23.28A26.54,26.54,0,0,0,809.71,318.48Z" transform="translate(-24.72 -148.8)" fill="#fff"/>
    <path id="Path_40" data-name="Path 40" d="M439.46,318.68a5.942,5.942,0,0,1-1.22.27H411.38c-.56-3.26-1.25-6.49-1.67-9.76a80.43,80.43,0,0,1-.26-16.49c.15-1.9.45-3.79.68-5.68H436v.47a53.879,53.879,0,0,0,.4,22.05A93.343,93.343,0,0,0,439.46,318.68Z" transform="translate(-24.72 -148.8)" fill="#fff"/>
    <path id="Path_41" data-name="Path 41" d="M436,287H410.13a73.319,73.319,0,0,1,4-17.44c1.47-4,3.38-7.89,5.09-11.83a17.262,17.262,0,0,0,2,.23h28.51a11.641,11.641,0,0,1,1.74.27,35.72,35.72,0,0,0-9,10C439.1,274.1,437.31,280.48,436,287Z" transform="translate(-24.72 -148.8)" fill="#fff"/>
    <path id="Path_42" data-name="Path 42" d="M508.54,323h-33.3a6.93,6.93,0,0,1-1.78-.48,4.267,4.267,0,0,1,.3-.51c3.87-4.67,6.05-10.16,7.57-15.93.72-2.72,1.18-5.51,1.75-8.27h26.15c-.07,3.26-.13,6.53-.22,9.79Q508.79,315.34,508.54,323Z" transform="translate(-24.72 -148.8)" fill="#fff"/>
    <path id="Path_43" data-name="Path 43" d="M706.67,324c0,1.83,0,3.67-.06,5.5q-.06,10-.09,19.92v1.34H678.24c.11-1.58.2-3.19.32-4.8q.44-6,.88-11.95c.24-3.34.46-6.68.69-10Z" transform="translate(-24.72 -148.8)" fill="#fff"/>
    <path id="Path_44" data-name="Path 44" d="M609.37,328.32h38.47c-.66,2-1.29,4.11-2,6.15-1.69,5.1-3.43,10.2-5.1,15.32a1.31,1.31,0,0,1-1.52,1.07c-6-.1-11.9-.15-17.85-.2h-7.53c-.5-2.37-1-4.86-1.53-7.36q-1.49-7.2-2.94-14.41A3.821,3.821,0,0,1,609.37,328.32Z" transform="translate(-24.72 -148.8)" fill="#fff"/>
    <path id="Path_45" data-name="Path 45" d="M357.83,232.08h25.68c1.19,4.08,2.4,8.15,3.58,12.24s2.33,8.15,3.5,12.22c.33,1.14.71,2.25,1.07,3.38H365.48c-1.58-5.66-3.19-11.32-4.75-17C359.74,239.32,358.8,235.7,357.83,232.08Z" transform="translate(-24.72 -148.8)" fill="#fff"/>
    <path id="Path_46" data-name="Path 46" d="M322.25,232.77a8.667,8.667,0,0,0,1.51.26h22a17,17,0,0,0,2-.23,12.833,12.833,0,0,1-.36,1.25c-1.41,3.59-2.82,7.19-4.26,10.77q-3.09,7.68-6.2,15.34H310.72c1.69-4.07,3.37-8.14,5.08-12.2Q319,240.35,322.25,232.77Z" transform="translate(-24.72 -148.8)" fill="#fff"/>
    <path id="Path_47" data-name="Path 47" d="M706.67,324H680.13q.54-13,1.07-25.91h25.91c-.05,3.9-.08,7.8-.14,11.7q-.09,6.45-.22,12.91C706.74,323.12,706.7,323.56,706.67,324Z" transform="translate(-24.72 -148.8)" fill="#fff"/>
    <path id="Path_48" data-name="Path 48" d="M752.92,317H726.58q.36-8.59.73-17.2.21-4.5.44-9h25.57c-.09,3.38-.2,6.76-.25,10.14C753,306.36,753,311.69,752.92,317Z" transform="translate(-24.72 -148.8)" fill="#fff"/>
    <path id="Path_49" data-name="Path 49" d="M144.24,155.09h10.09c.13.13.25.37.39.38,2.44.16,4.89.3,7.34.45h0c-.09,3.66-.23,7.32-.27,11-.11,8.45-.17,16.9-.26,25.35-.95-.48-1.88-1-2.87-1.42-3-1.2-6-2.48-9.09-3.47-2.59-.82-5.29-1.29-8-1.91.08-2.07.21-4.14.23-6.21.1-7.55.17-15.1.25-22.65a.479.479,0,0,0,0-.12c-.09-.72.21-1,.95-1A3.66,3.66,0,0,0,144.24,155.09Z" transform="translate(-24.72 -148.8)" fill="#fff"/>
    <path id="Path_50" data-name="Path 50" d="M39,366.71a75.814,75.814,0,0,1,1.34-81.15,4.779,4.779,0,0,1,.47-.54,15.529,15.529,0,0,1,.26,2.12c0,2-.19,4-.21,6v10.43c0,.39-.08.79-.09,1.19v5.31l1-.19c-.91,4.18-1.83,8.35-2.72,12.54a23.22,23.22,0,0,0-.78,4.4c-.09,5.38,0,10.77,0,16.16l.44,2.18.25.49.21.46v.74l.2.46.05,1,.45,1.66.06.94c-.09,1.61-.23,3.22-.25,4.83v8.52a11.369,11.369,0,0,1-.68,2.45Z" transform="translate(-24.72 -148.8)" fill="#f6f6f6"/>
    <path id="Path_51" data-name="Path 51" d="M541.14,330.51h37c-.69,2.49-1.36,5-2.07,7.47-1.13,3.95-2.32,7.88-3.43,11.84a1.24,1.24,0,0,1-1.46,1.1c-5.35-.11-10.7-.17-16.06-.22h-8.66C544.71,344.06,542.93,337.28,541.14,330.51Z" transform="translate(-24.72 -148.8)" fill="#fff"/>
    <path id="Path_52" data-name="Path 52" d="M811,270l-.63,19.57c-.05,1.63-.11,3.27-.17,4.9H784.33c.11-4.26.19-8.52.32-12.78.11-3.9.27-7.8.41-11.7Z" transform="translate(-24.72 -148.8)" fill="#fff"/>
    <path id="Path_53" data-name="Path 53" d="M784.33,294.48h25.86q-.15,8-.31,16-.07,4-.17,8c-1,.08-2.05.23-3.08.23H783.35q.31-8.12.64-16.23C784.1,299.82,784.22,297.15,784.33,294.48Z" transform="translate(-24.72 -148.8)" fill="#fff"/>
    <path id="Path_54" data-name="Path 54" d="M615.62,253.19a11.94,11.94,0,0,1-1.77.24H582.06a7.839,7.839,0,0,1-2.09-.6c1.81-6.4,3.61-12.81,5.4-19.18h26.21c.48,2.29,1,4.66,1.48,7C613.92,244.84,614.76,249,615.62,253.19Z" transform="translate(-24.72 -148.8)" fill="#fff"/>
    <path id="Path_55" data-name="Path 55" d="M41.71,309.84l-1,.19v-5.31c0-.4.09-.8.09-1.19V293.1c0-2,.18-4,.21-6a15.531,15.531,0,0,0-.26-2.12c2.5-3.2,4.8-6.58,7.55-9.56A74.43,74.43,0,0,1,77.54,256a4.09,4.09,0,0,1,.69-.17c-.07,2.69-.2,5.38-.21,8.07,0,1.14.24,2.27-1,3a.781.781,0,0,1-.22,0l-1.69,1.17a.909.909,0,0,1-.23,0l-.5.44-.25.49-1,.26-.46.42-1.93,1.4a91.259,91.259,0,0,0-11.77,10,65.881,65.881,0,0,0-8.76,10.81c-1.27,2-2.49,4.06-3.58,6.17-1.18,2.27-2.24,4.61-3.25,7C42.78,306.62,42.28,308.24,41.71,309.84Z" transform="translate(-24.72 -148.8)" fill="#f6f6f6"/>
    <path id="Path_56" data-name="Path 56" d="M707.11,298.08H681.2l.51-16.72c.07-2.11.15-4.22.22-6.32h25.91c-.14,4.85-.3,9.71-.44,14.56-.07,2.35-.11,4.7-.17,7.06C707.22,297.13,707.15,297.6,707.11,298.08Z" transform="translate(-24.72 -148.8)" fill="#fff"/>
    <path id="Path_57" data-name="Path 57" d="M753.32,290.88H727.75q.38-9,.77-17.92c.08-1.79.21-3.57.31-5.36h25.42q-.25,7-.52,14C753.61,284.69,753.46,287.78,753.32,290.88Z" transform="translate(-24.72 -148.8)" fill="#fff"/>
    <path id="Path_58" data-name="Path 58" d="M657.08,302.16c-1.1-.08-2.2-.23-3.31-.23h-17.2a6.871,6.871,0,0,1-1.33-.29c1.56-5,3.11-10,4.7-15,1.21-3.78,2.46-7.55,3.69-11.33a9.511,9.511,0,0,0,2,.48h20.76q-3.42,9.71-6.83,19.42C658.78,297.51,657.93,299.83,657.08,302.16Z" transform="translate(-24.72 -148.8)" fill="#fff"/>
    <path id="Path_59" data-name="Path 59" d="M786.43,213.24V191.63h27.36c-.24,7.19-.49,14.36-.73,21.61Z" transform="translate(-24.72 -148.8)" fill="#fff"/>
    <path id="Path_60" data-name="Path 60" d="M683.47,191.63h27.36c-.24,7.19-.49,14.36-.73,21.61H683.47Z" transform="translate(-24.72 -148.8)" fill="#fff"/>
    <path id="Path_61" data-name="Path 61" d="M707.84,275H681.93l.45-21a7.355,7.355,0,0,1,.13-1h24.65a13,13,0,0,0,1.76-.23c-.16,3.7-.33,7.4-.49,11.1L708,274.21a7.858,7.858,0,0,1-.16.79Z" transform="translate(-24.72 -148.8)" fill="#fff"/>
    <path id="Path_62" data-name="Path 62" d="M573.1,277a9.748,9.748,0,0,0,1.5.24h19.13q-2.54,8.82-5.07,17.65c-.9,3.09-1.85,6.16-2.78,9.24H565.31q3.11-11,6.23-22C572,280.36,572.58,278.66,573.1,277Z" transform="translate(-24.72 -148.8)" fill="#fff"/>
    <path id="Path_63" data-name="Path 63" d="M544.35,254.63c1.11,4.34,2.24,8.69,3.33,13,.85,3.4,1.67,6.82,2.5,10.23H528.72a15.232,15.232,0,0,0-1.89.23c-.83-2.94-1.68-5.87-2.49-8.81q-2-7.23-4-14.47a15.31,15.31,0,0,1,1.88-.23Q533.3,254.62,544.35,254.63Z" transform="translate(-24.72 -148.8)" fill="#fff"/>
    <path id="Path_64" data-name="Path 64" d="M811,270H785.06l.48-20.88h26.57c-.27,5.17-.52,10.35-.79,15.52C811.22,266.43,811.1,268.22,811,270Z" transform="translate(-24.72 -148.8)" fill="#fff"/>
    <path id="Path_65" data-name="Path 65" d="M485.28,255.12H510.7q-.29,8.6-.58,17.18c-.05,1.47-.12,2.94-.19,4.41h-25.3c.06-2.15.11-4.3.17-6.45Z" transform="translate(-24.72 -148.8)" fill="#fff"/>
    <path id="Path_66" data-name="Path 66" d="M666.44,275.76H645.68a9.511,9.511,0,0,1-2-.48q1.44-4.61,2.87-9.22,2.12-6.8,4.24-13.59h23.9c-1.41,4.07-2.8,8.14-4.24,12.19-1.22,3.44-2.49,6.87-3.74,10.3A3.594,3.594,0,0,0,666.44,275.76Z" transform="translate(-24.72 -148.8)" fill="#fff"/>
    <path id="Path_67" data-name="Path 67" d="M484.63,276.72h25.3c-.14,4.39-.27,8.77-.42,13.16-.08,2.65-.18,5.31-.28,8H483.08c.37-4,.79-8,1.09-11.94C484.4,282.84,484.48,279.77,484.63,276.72Z" transform="translate(-24.72 -148.8)" fill="#fff"/>
    <path id="Path_68" data-name="Path 68" d="M708.92,252.72a13,13,0,0,1-1.76.23H682.51V233.63H710.1Q709.52,243.15,708.92,252.72Z" transform="translate(-24.72 -148.8)" fill="#fff"/>
    <path id="Path_69" data-name="Path 69" d="M97.48,189l-5.58,1.6-.41.07c-3.43,1.31-6.95,2.43-10.28,4-4.29,1.95-8.43,4.21-12.63,6.34-1,.49-1.88,1-2.83,1.49l-.35-.23A34.323,34.323,0,0,1,67,198.5a88.9,88.9,0,0,1,11-14.73A85.91,85.91,0,0,1,98.67,167c4.06-2.37,8.44-4.15,12.68-6.2a.322.322,0,0,1,.22.06,5.481,5.481,0,0,1-.93.67c-2.5,1.16-5,2.35-7.54,3.42a3.06,3.06,0,0,0-2.14,3.54c.21,3.49-.11,7-.15,10.51v9l-2.92,1Z" transform="translate(-24.72 -148.8)" fill="#fff"/>
    <path id="Path_70" data-name="Path 70" d="M544.35,254.63H522.23a15.31,15.31,0,0,0-1.88.23q-3.12-10.6-6.27-21.25H539.2c.61,2.44,1.25,5,1.87,7.52Q542.72,247.89,544.35,254.63Z" transform="translate(-24.72 -148.8)" fill="#fff"/>
    <path id="Path_71" data-name="Path 71" d="M526.83,278.16a15.224,15.224,0,0,1,1.89-.23h21.46q2.63,10.56,5.24,21.11a6.85,6.85,0,0,1-1.78.49H532.8c-1.36-4.78-2.73-9.56-4.07-14.34C528.07,282.84,527.46,280.5,526.83,278.16Z" transform="translate(-24.72 -148.8)" fill="#fff"/>
    <path id="Path_72" data-name="Path 72" d="M674.64,252.48h-23.9c1.91-6.29,3.82-12.59,5.7-18.82h24.88a7.494,7.494,0,0,1-.22.84q-3.11,8.79-6.23,17.6a2.81,2.81,0,0,1-.23.38Z" transform="translate(-24.72 -148.8)" fill="#fff"/>
    <path id="Path_73" data-name="Path 73" d="M598.83,276.48h21.73q2.13,10.2,4.27,20.4H602.94Z" transform="translate(-24.72 -148.8)" fill="#fff"/>
    <path id="Path_74" data-name="Path 74" d="M100.8,187.93v-9c0-3.51.36-7,.15-10.51a3.06,3.06,0,0,1,2.14-3.54c2.54-1.07,5-2.26,7.54-3.42a5.479,5.479,0,0,0,.93-.67l.55-.17a4.321,4.321,0,0,0,.64-.07l5.31-1.45a5.55,5.55,0,0,1,.47,1.52c0,2.66-.16,5.32-.21,8-.11,5.45-.19,10.91-.27,16.36h.06v.07l-1.67.2h-.76l-.67.18-4.1.58-.45.08-1.24.12-1,.11-.44.26-1,.16-.45.09-.55.1-.45-.12-.48.28-.71.14-.94.23h-.29c-.68-.49-1.2-.23-1.65.37Z" transform="translate(-24.72 -148.8)" fill="#fff"/>
    <path id="Path_75" data-name="Path 75" d="M812.11,249.12H785.54V233.63h27.51C812.74,238.76,812.42,243.94,812.11,249.12Z" transform="translate(-24.72 -148.8)" fill="#fff"/>
    <path id="Path_76" data-name="Path 76" d="M118.32,273.84c-2.14,1.38-4.29,2.75-6.42,4.15a10.539,10.539,0,0,0-1,.87l-2.32,1.5c-.25.16-.53.29-.79.44a13.41,13.41,0,0,0,.46-2.32q.18-6.37.25-12.75v-9.32c0-1-.13-1.76-1.23-2,1.9-.56,3.79-1.11,5.68-1.69.53-.17,1-.43,1.55-.65h.71a9.609,9.609,0,0,0,1.7,0c2.3-.45,4.57-1,6.87-1.45,3-.56,5.93-1.06,8.91-1.55,2.8-.46,5.62-.87,8.43-1.31v11.31a6.721,6.721,0,0,1-.46,1.64l-9.6-4.31c-3.75-1.11-7.5-2.24-11.28-3.28-.22-.06-.86.53-.91.88a24.63,24.63,0,0,0-.28,3.55C118.47,262.93,118.4,268.38,118.32,273.84Z" transform="translate(-24.72 -148.8)" fill="#fff"/>
    <path id="Path_77" data-name="Path 77" d="M171.36,246v9.56c0,3.19-.14,6.43-.24,9.65a7,7,0,0,1-.23,1.16h-.26l-.49-.18-2-.14h-.6l-1.08-.21h-.6l-.84-.23h-.26l-2.15-.21-1.56-.08a1.69,1.69,0,0,0-2.14-.37l-6.26-.13V247.01l.24-.34.9-.19h2l3.35-.19c1.42-.08,2.84-.21,4.26-.22C166,246,168.7,246,171.36,246Z" transform="translate(-24.72 -148.8)" fill="#fff"/>
    <path id="Path_78" data-name="Path 78" d="M144.24,155.09a3.66,3.66,0,0,1-1.21.4c-.74,0-1,.27-.95,1a.48.48,0,0,1,0,.12c-.08,7.55-.15,15.1-.25,22.65,0,2.07-.15,4.14-.23,6.21-2.4-.23-4.8-.51-7.2-.68q-3-.22-5.94-.24c-2.1,0-4.2.09-6.3.14a2.37,2.37,0,0,1,.79-.34c2.11-.11,4.22-.21,6.32-.24.75,0,1.06-.18,1.07-1,0-2.87.16-5.74.21-8.61.1-5.46.15-10.93.27-16.39,0-.92-.1-1.6-1-1.94a5,5,0,0,1,.82-.36C135.11,154.66,139.69,155.11,144.24,155.09Z" transform="translate(-24.72 -148.8)" fill="#fff"/>
    <path id="Path_79" data-name="Path 79" d="M129.8,156.16c.92.34,1,1,1,1.94-.12,5.46-.17,10.93-.27,16.39-.05,2.87-.18,5.74-.21,8.61,0,.82-.32,1-1.07,1-2.1,0-4.21.13-6.32.24a2.37,2.37,0,0,0-.79.34L121,185h-2.92c.08-5.45.16-10.91.27-16.36,0-2.66.18-5.32.21-8a5.549,5.549,0,0,0-.47-1.52l2.62-1.16.44-.07,2.68-.67.48-.05.46-.13,1.74-.26a2.06,2.06,0,0,0,.57.37c.06,0,.22-.29.33-.45a.27.27,0,0,0,0-.12Z" transform="translate(-24.72 -148.8)" fill="#fff"/>
    <path id="Path_80" data-name="Path 80" d="M161.51,192.26c.09-8.45.15-16.9.26-25.35,0-3.66.18-7.32.27-11h.9l2.14.38.77.1c.16.16.29.43.48.48,1.21.31,2.44.58,3.83.9v1.37q-.12,10.89-.24,21.76c-.06,4.62-.12,9.23-.27,13.85a17.558,17.558,0,0,1-.72,3.22c-1.36-1.09-2.71-2.2-4.09-3.27C163.75,193.89,162.63,193.09,161.51,192.26Z" transform="translate(-24.72 -148.8)" fill="#fff"/>
    <path id="Path_81" data-name="Path 81" d="M602.94,296.88h21.89l2.76,13.22H605.66Z" transform="translate(-24.72 -148.8)" fill="#fff"/>
    <path id="Path_82" data-name="Path 82" d="M39,366.71a11.37,11.37,0,0,0,.62-2.51c.08-2.84,0-5.68,0-8.52,0-1.61.16-3.22.25-4.83.14.12.36.22.41.37.83,2.7,1.49,5.45,2.48,8.08a71.81,71.81,0,0,0,3.54,7.79A70.6,70.6,0,0,0,56.68,382a64.51,64.51,0,0,0,13.38,10.93,16,16,0,0,0,2.16.94,40.3,40.3,0,0,0,3.86,2.24c1.78.8,3.65,1.39,5.48,2.07.23.18.43.46.69.53,3.44,1,6.9,2,10.34,3.06.91.27,1.8.58,2.7.88-3.29-.57-6.64-.93-9.87-1.74a75.25,75.25,0,0,1-37.24-22A67.49,67.49,0,0,1,39,366.71Z" transform="translate(-24.72 -148.8)" fill="#f6f6f6"/>
    <path id="Path_83" data-name="Path 83" d="M114.5,252.05a16.326,16.326,0,0,1-1.55.65c-1.89.58-3.78,1.13-5.68,1.69-3,.93-6,1.86-8.94,2.81-.26.08-.46.35-.69.54a28.428,28.428,0,0,0-3.07.87q-3.81,1.5-7.54,3.17a21.663,21.663,0,0,0-2.37,1.47c-1.33.6-2.67,1.17-4,1.79s-2.42,1.21-3.63,1.82c1.22-.71,1-1.84,1-3,0-2.69.14-5.38.21-8.07,3.56-1,7.07-2.22,10.67-3a69.681,69.681,0,0,1,18.34-1.44C109.66,251.46,112.08,251.81,114.5,252.05Z" transform="translate(-24.72 -148.8)" fill="#f6f6f6"/>
    <path id="Path_84" data-name="Path 84" d="M152.64,247v17.81l-3.86.15-1.17-.19-7-4.1a6.72,6.72,0,0,0,.46-1.64V247.72Z" transform="translate(-24.72 -148.8)" fill="#fff"/>
    <path id="Path_85" data-name="Path 85" d="M95.29,402.66c-.9-.3-1.79-.61-2.7-.88-3.44-1-6.9-2-10.34-3.06-.26-.07-.46-.35-.69-.53.53-.43,1.25-.6,1.26-1.56,0-4.34.17-8.68.2-13a30.591,30.591,0,0,0-.35-3.41l1.53,1.88.28.72.44.49.28.71.44.48c2.08,3,4,6.23,6.27,9.13,2,2.49,4.31,4.66,6.48,7,.57.59,1.14,1.17,1.69,1.78a4.562,4.562,0,0,1,.45.74l-1.41.07h-.71l-1.19-.21-.46-.09-.51-.09Z" transform="translate(-24.72 -148.8)" fill="#fff"/>
    <path id="Path_86" data-name="Path 86" d="M161.51,192.26c1.12.83,2.24,1.63,3.33,2.48,1.38,1.07,2.73,2.18,4.09,3.27,1.69,2.12,3.43,4.18,5,6.35a35.65,35.65,0,0,1,4.72,8.92c1,2.7,1.82,5.47,2.69,8.22a3.44,3.44,0,0,1,0,1.06c-.41-1.14-.81-2.29-1.24-3.43-1.11-3-2.09-6-3.39-8.9a38.63,38.63,0,0,0-14.5-16.75A41.7,41.7,0,0,0,150.09,188c-2.92-.76-5.85-1.54-8.82-2.05a58.943,58.943,0,0,0-8.06-.77c-3.86-.12-7.72,0-11.58,0A2.72,2.72,0,0,1,121,185l1.18-.33c2.1-.05,4.2-.15,6.3-.14s4,.09,5.94.24c2.4.17,4.8.45,7.2.68,2.66.62,5.36,1.09,8,1.91,3.08,1,6.08,2.27,9.09,3.47C159.63,191.24,160.56,191.78,161.51,192.26Z" transform="translate(-24.72 -148.8)" fill="#fff"/>
    <path id="Path_87" data-name="Path 87" d="M171.36,246h-8c-1.42,0-2.84.14-4.26.22v-.28a2.27,2.27,0,0,1,.66-.26c2-.13,4-.28,6-.33q6.22-.15,12.45-.21c1.15,0,2.3.14,3.45.21.81,0,1.19-.12,1.1-1.15-.16-1.86,0-3.75-.06-5.63a73.608,73.608,0,0,0-1.38-14.35,5,5,0,0,1,.05-1.27c.17.2.46.38.49.6.43,3.53,1,7.06,1.2,10.6s.17,6.93.29,10.39c0,1.07-.28,1.55-1.42,1.46-1.62-.12-3.25-.22-4.88-.21C175.17,245.81,173.27,245.94,171.36,246Z" transform="translate(-24.72 -148.8)" fill="#fff"/>
    <path id="Path_88" data-name="Path 88" d="M152.64,247l-11.52.73c-2.81.44-5.63.85-8.43,1.31-3,.49-6,1-8.91,1.55-2.3.44-4.57,1-6.87,1.45a9.611,9.611,0,0,1-1.7,0c2.88-.71,5.75-1.49,8.65-2.11s5.71-1.05,8.57-1.56c1.6-.28,3.2-.64,4.82-.78,4.82-.42,9.64-.76,14.47-1.11a5.828,5.828,0,0,1,1.16.14Z" transform="translate(-24.72 -148.8)" fill="#fff"/>
    <path id="Path_89" data-name="Path 89" d="M184.08,270.25c.61.3,1.24.58,1.83.93a5.488,5.488,0,0,1,.82.71c-1-.36-1.92-.74-2.89-1.07L174,267.51a3.56,3.56,0,0,1-.7-.41,33.646,33.646,0,0,1,3.48.76c2.08.64,4.11,1.41,6.17,2.12C183.3,270.1,183.69,270.16,184.08,270.25Z" transform="translate(-24.72 -148.8)" fill="#fff"/>
    <path id="Path_90" data-name="Path 90" d="M120.69,158l-2.62,1.16-5.31,1.45a4.319,4.319,0,0,1-.64.07c1.27-.52,2.51-1.12,3.81-1.52A44,44,0,0,1,120.69,158Z" transform="translate(-24.72 -148.8)" fill="#fff"/>
    <path id="Path_91" data-name="Path 91" d="M162.06,156c-2.45-.15-4.9-.29-7.34-.45-.14,0-.26-.25-.39-.38a41.4,41.4,0,0,1,4.17,0,27.72,27.72,0,0,1,3.56.83Z" transform="translate(-24.72 -148.8)" fill="#fff"/>
    <path id="Path_92" data-name="Path 92" d="M190.44,273.72c.86.34,1.73.66,2.59,1,.62.25,1.23.53,1.84.79.08.17.15.34.22.52Z" transform="translate(-24.72 -148.8)" fill="#fff"/>
    <path id="Path_93" data-name="Path 93" d="M206.69,181.41l-2.48-3Z" transform="translate(-24.72 -148.8)" fill="#6b4228"/>
    <path id="Path_94" data-name="Path 94" d="M159.09,246v.28l-3.35.19Z" transform="translate(-24.72 -148.8)" fill="#fff"/>
    <path id="Path_95" data-name="Path 95" d="M158.9,264.91a1.69,1.69,0,0,1,2.14.37Z" transform="translate(-24.72 -148.8)" fill="#fff"/>
    <path id="Path_96" data-name="Path 96" d="M123.81,157.22l-2.68.67Z" transform="translate(-24.72 -148.8)" fill="#6b4228"/>
    <path id="Path_97" data-name="Path 97" d="M165.08,156.33l-2.14-.38Z" transform="translate(-24.72 -148.8)" fill="#6b4228"/>
    <path id="Path_98" data-name="Path 98" d="M116.42,185.28l1.67-.2C117.58,185.55,117.08,186,116.42,185.28Z" transform="translate(-24.72 -148.8)" fill="#fff"/>
    <path id="Path_99" data-name="Path 99" d="M170.62,266.36h.26l1.71.64-2-.44a.6.6,0,0,1,.03-.2Z" transform="translate(-24.72 -148.8)" fill="#fff"/>
    <path id="Path_100" data-name="Path 100" d="M168.13,266l2,.14.06.36Z" transform="translate(-24.72 -148.8)" fill="#fff"/>
    <path id="Path_101" data-name="Path 101" d="M162.6,265.36l2.15.21C164,266.19,163.27,265.85,162.6,265.36Z" transform="translate(-24.72 -148.8)" fill="#fff"/>
    <path id="Path_102" data-name="Path 102" d="M207.83,182.89c-.74-.23-1.25-.63-1.16-1.5Z" transform="translate(-24.72 -148.8)" fill="#fff"/>
    <path id="Path_103" data-name="Path 103" d="M101.29,187.84c.45-.6,1-.86,1.65-.37l-.49.22-.65.14Z" transform="translate(-24.72 -148.8)" fill="#fff"/>
    <path id="Path_104" data-name="Path 104" d="M155.09,246.43Z" transform="translate(-24.72 -148.8)" fill="#6b4228"/>
    <path id="Path_105" data-name="Path 105" d="M97.22,402.9l1.19.21Z" transform="translate(-24.72 -148.8)" fill="#6b4228"/>
    <path id="Path_106" data-name="Path 106" d="M225.83,309.61h.69l-.31.72Z" transform="translate(-24.72 -148.8)" fill="#fff"/>
    <path id="Path_107" data-name="Path 107" d="M197,277.25l1,.64Z" transform="translate(-24.72 -148.8)" fill="#6b4228"/>
    <path id="Path_108" data-name="Path 108" d="M208.54,183.84c-.23-.32-.47-.63-.71-1C208.07,183.21,208.31,183.52,208.54,183.84Z" transform="translate(-24.72 -148.8)" fill="#6b4228"/>
    <path id="Path_109" data-name="Path 109" d="M223.71,305.52c.21.34.42.68.64,1C224.13,306.2,223.92,305.86,223.71,305.52Z" transform="translate(-24.72 -148.8)" fill="#6b4228"/>
    <path id="Path_110" data-name="Path 110" d="M166.45,265.81l1.08.21Z" transform="translate(-24.72 -148.8)" fill="#6b4228"/>
    <path id="Path_111" data-name="Path 111" d="M225.24,308.37c.17.36.35.72.52,1.07C225.59,309.09,225.41,308.73,225.24,308.37Z" transform="translate(-24.72 -148.8)" fill="#6b4228"/>
    <path id="Path_112" data-name="Path 112" d="M195.09,276l1,.66Z" transform="translate(-24.72 -148.8)" fill="#6b4228"/>
    <path id="Path_113" data-name="Path 113" d="M127.39,156.7c-.11.16-.27.47-.33.45a2.06,2.06,0,0,1-.57-.37l.23-.07Z" transform="translate(-24.72 -148.8)" fill="#fff"/>
    <path id="Path_114" data-name="Path 114" d="M108.24,186.36l1-.11-.73.25Z" transform="translate(-24.72 -148.8)" fill="#fff"/>
    <path id="Path_115" data-name="Path 115" d="M223,304.3l.58,1.05Z" transform="translate(-24.72 -148.8)" fill="#6b4228"/>
    <path id="Path_116" data-name="Path 116" d="M199.26,173.5l-.78-.62Z" transform="translate(-24.72 -148.8)" fill="#6b4228"/>
    <path id="Path_117" data-name="Path 117" d="M215.06,293l.66.77Z" transform="translate(-24.72 -148.8)" fill="#6b4228"/>
    <path id="Path_118" data-name="Path 118" d="M201.78,280.6l.79.64Z" transform="translate(-24.72 -148.8)" fill="#6b4228"/>
    <path id="Path_119" data-name="Path 119" d="M203.66,177.87l-.65-.64Z" transform="translate(-24.72 -148.8)" fill="#6b4228"/>
    <path id="Path_120" data-name="Path 120" d="M115,185.47l.67-.18Z" transform="translate(-24.72 -148.8)" fill="#6b4228"/>
    <path id="Path_121" data-name="Path 121" d="M108.24,186.36l.23.14-.67.12Z" transform="translate(-24.72 -148.8)" fill="#fff"/>
    <path id="Path_122" data-name="Path 122" d="M103.23,187.5l.94-.23Z" transform="translate(-24.72 -148.8)" fill="#6b4228"/>
    <path id="Path_123" data-name="Path 123" d="M101.8,187.83l.65-.14Z" transform="translate(-24.72 -148.8)" fill="#6b4228"/>
    <path id="Path_124" data-name="Path 124" d="M165,265.57l.84.23Z" transform="translate(-24.72 -148.8)" fill="#6b4228"/>
    <path id="Path_125" data-name="Path 125" d="M201.26,175.47l-.65-.65Z" transform="translate(-24.72 -148.8)" fill="#6b4228"/>
    <path id="Path_126" data-name="Path 126" d="M127.39,156.7h-.67l.7-.13a.27.27,0,0,1-.03.13Z" transform="translate(-24.72 -148.8)" fill="#fff"/>
    <path id="Path_127" data-name="Path 127" d="M202.45,176.67c-.21-.22-.42-.43-.64-.64C202,176.24,202.24,176.45,202.45,176.67Z" transform="translate(-24.72 -148.8)" fill="#6b4228"/>
    <path id="Path_128" data-name="Path 128" d="M207.32,285.15h.5c.07.18.14.36.22.54Z" transform="translate(-24.72 -148.8)" fill="#fff"/>
    <path id="Path_129" data-name="Path 129" d="M170.19,266.54l-.06-.36.49.18a.6.6,0,0,0,0,.23Z" transform="translate(-24.72 -148.8)" fill="#fff"/>
    <path id="Path_130" data-name="Path 130" d="M217.27,295.66l.39.52Z" transform="translate(-24.72 -148.8)" fill="#6b4228"/>
    <path id="Path_131" data-name="Path 131" d="M106.36,186.87l.45-.09Z" transform="translate(-24.72 -148.8)" fill="#6b4228"/>
    <path id="Path_132" data-name="Path 132" d="M218.47,297.33l.38.55Z" transform="translate(-24.72 -148.8)" fill="#6b4228"/>
    <path id="Path_133" data-name="Path 133" d="M104.88,187.13l.48-.28v.24Z" transform="translate(-24.72 -148.8)" fill="#fff"/>
    <path id="Path_134" data-name="Path 134" d="M110.44,186.13l.45-.08Z" transform="translate(-24.72 -148.8)" fill="#6b4228"/>
    <path id="Path_135" data-name="Path 135" d="M220.1,299.76c.13.19.26.38.38.57C220.36,300.14,220.23,300,220.1,299.76Z" transform="translate(-24.72 -148.8)" fill="#6b4228"/>
    <path id="Path_136" data-name="Path 136" d="M196.37,171.1l-.54-.43Z" transform="translate(-24.72 -148.8)" fill="#6b4228"/>
    <path id="Path_137" data-name="Path 137" d="M222.32,303.1l.36.55Z" transform="translate(-24.72 -148.8)" fill="#6b4228"/>
    <path id="Path_138" data-name="Path 138" d="M196.25,276.77l.57.39Z" transform="translate(-24.72 -148.8)" fill="#6b4228"/>
    <path id="Path_139" data-name="Path 139" d="M193.26,168.69l-.55-.41Z" transform="translate(-24.72 -148.8)" fill="#6b4228"/>
    <path id="Path_140" data-name="Path 140" d="M124.75,157l-.46.13Z" transform="translate(-24.72 -148.8)" fill="#6b4228"/>
    <path id="Path_141" data-name="Path 141" d="M198.16,278l.58.37Z" transform="translate(-24.72 -148.8)" fill="#6b4228"/>
    <path id="Path_142" data-name="Path 142" d="M91.49,190.67l.41-.07c-.07.1-.15.19-.23.29Z" transform="translate(-24.72 -148.8)" fill="#fff"/>
    <path id="Path_143" data-name="Path 143" d="M199.15,278.68l.54.42Z" transform="translate(-24.72 -148.8)" fill="#6b4228"/>
    <path id="Path_144" data-name="Path 144" d="M199.84,279.19l.56.41Z" transform="translate(-24.72 -148.8)" fill="#6b4228"/>
    <path id="Path_145" data-name="Path 145" d="M201.08,280.11l.53.41Z" transform="translate(-24.72 -148.8)" fill="#6b4228"/>
    <path id="Path_146" data-name="Path 146" d="M97.48,189l.4-.13-.2.31Z" transform="translate(-24.72 -148.8)" fill="#fff"/>
    <path id="Path_147" data-name="Path 147" d="M203,281.55l.53.41Z" transform="translate(-24.72 -148.8)" fill="#6b4228"/>
    <path id="Path_148" data-name="Path 148" d="M204.2,282.51l.53.41Z" transform="translate(-24.72 -148.8)" fill="#6b4228"/>
    <path id="Path_149" data-name="Path 149" d="M205.4,283.47l.54.4Z" transform="translate(-24.72 -148.8)" fill="#6b4228"/>
    <path id="Path_150" data-name="Path 150" d="M189.49,273.23l.6.34Z" transform="translate(-24.72 -148.8)" fill="#6b4228"/>
    <path id="Path_151" data-name="Path 151" d="M105.37,187.09v-.24l.45.12-.22.32Z" transform="translate(-24.72 -148.8)" fill="#fff"/>
    <path id="Path_152" data-name="Path 152" d="M187.09,272c.2.11.4.22.61.32A2.384,2.384,0,0,1,187.09,272Z" transform="translate(-24.72 -148.8)" fill="#6b4228"/>
    <path id="Path_153" data-name="Path 153" d="M96.25,402.72l.51.09Z" transform="translate(-24.72 -148.8)" fill="#6b4228"/>
    <path id="Path_154" data-name="Path 154" d="M188.53,272.74l.6.35Z" transform="translate(-24.72 -148.8)" fill="#6b4228"/>
    <path id="Path_155" data-name="Path 155" d="M98.87,403.15h0Z" transform="translate(-24.72 -148.8)" fill="#6b4228"/>
    <path id="Path_158" data-name="Path 158" d="M140.64,260.64l7,4.1c-.78.23-1.56.49-2.35.69-.57.14-1.16.19-1.74.28l-.72.21-1.92.25-8.16,1.93-.47.24-1.21.45-2.4.49c2-1.07,2-2.95,1.93-4.84s-.06-3.66,0-5.49a19.691,19.691,0,0,1,.46-2.62Z" transform="translate(-24.72 -148.8)" fill="#fff"/>
    <path id="Path_159" data-name="Path 159" d="M142.8,265.92l.72-.21Z" transform="translate(-24.72 -148.8)" fill="#6b4228"/>
    <path id="Path_160" data-name="Path 160" d="M131,256.33a19.687,19.687,0,0,0-.46,2.62c-.07,1.83-.05,3.66,0,5.49s.09,3.77-1.93,4.84h-.45l-.75.46-5.76,2.64-.52.46-1.4.51-1.44.47c.08-5.46.15-10.91.25-16.36a24.631,24.631,0,0,1,.28-3.55c.05-.35.69-.94.91-.88C123.54,254.09,127.29,255.22,131,256.33Z" transform="translate(-24.72 -148.8)" fill="#fff"/>
    <path id="Path_161" data-name="Path 161" d="M127.44,269.76l.75-.46Z" transform="translate(-24.72 -148.8)" fill="#6b4228"/>
    <path id="Path_162" data-name="Path 162" d="M121.16,272.86l.52-.46Z" transform="translate(-24.72 -148.8)" fill="#6b4228"/>
    <path id="Path_163" data-name="Path 163" d="M132.25,268.34l.47-.24Z" transform="translate(-24.72 -148.8)" fill="#6b4228"/>
    <path id="Path_164" data-name="Path 164" d="M84.48,382.8l-.28-.72a5.8,5.8,0,0,0-.29-1c-1.29-2.72-2.62-5.42-3.9-8.14-.76-1.63-1.54-3.25-2.16-4.93a34.292,34.292,0,0,1-1.25-4.46c-.4-1.81-.74-3.65-1-5.49-.34-2.52-.68-5-.81-7.57a79.48,79.48,0,0,1-.07-8.73,60.41,60.41,0,0,1,1.13-8.36,98.553,98.553,0,0,1,2.8-11.45c1.44-4.27,3.38-8.36,5.11-12.52l.45-.52v-.44l.47-.52a.41.41,0,0,0,0-.19,3.541,3.541,0,0,0,.47-.48c1.35-2.2,2.53-4.52,4.06-6.58,2.78-3.73,5.77-7.31,8.67-10.94l2.38-2.18c-.16,2-.42,3.95-.46,5.93-.13,7.14-.17,14.29-.26,21.44-.06,4.62-.16,9.25-.24,13.88l-.24,14.48-.24,13.88-.24,14.73q-.11,6.15-.24,12.32c-.05,2.07-.23,4.14-.22,6.21,0,3.39.13,6.77.21,10.16-2.17-2.31-4.53-4.48-6.48-7-2.27-2.9-4.19-6.08-6.27-9.13L85.2,384c-.09-.24-.19-.47-.28-.71Z" transform="translate(-24.72 -148.8)" fill="#f6f6f6"/>
    <path id="Path_165" data-name="Path 165" d="M100.32,287.55l-2.38,2.18c.07-.79.2-1.58.21-2.37.1-5.3.16-10.6.25-15.89.07-4.07.17-8.13.23-12.19,0-.72.09-1.52-1-1.54.23-.19.43-.46.69-.54,3-.95,6-1.88,8.94-2.81,1.1.26,1.25,1,1.23,2-.06,3.1,0,6.21,0,9.32q-.07,6.38-.25,12.75a13.411,13.411,0,0,1-.46,2.32Z" transform="translate(-24.72 -148.8)" fill="#fff"/>
    <path id="Path_166" data-name="Path 166" d="M72.22,393.88a16.005,16.005,0,0,1-2.16-.94A64.51,64.51,0,0,1,56.68,382a70.6,70.6,0,0,1-10.39-14.92,71.809,71.809,0,0,1-3.54-7.79c-1-2.63-1.65-5.38-2.48-8.08-.05-.15-.27-.25-.41-.37l-.06-.94-.45-1.66a6.836,6.836,0,0,0-.05-1c-.06-.15-.13-.3-.2-.46v-.74l-.21-.46c-.08-.16-.16-.33-.25-.49-.14-.73-.29-1.45-.44-2.18,0-5.39-.05-10.78,0-16.16a23.22,23.22,0,0,1,.78-4.4c.89-4.19,1.81-8.36,2.72-12.54.57-1.6,1.07-3.22,1.73-4.77,1-2.36,2.07-4.7,3.25-7,1.09-2.11,2.31-4.16,3.58-6.17A65.881,65.881,0,0,1,59,281.12a91.263,91.263,0,0,1,11.77-10l1.93-1.4.46-.42,1-.26a4.86,4.86,0,0,1,.47,1.39c0,2.43-.16,4.86-.21,7.29-.1,4.74-.17,9.49-.25,14.24l-.24,14.36-.24,14.13c-.08,4.75-.15,9.5-.24,14.24-.07,3.71-.18,7.42-.24,11.13q-.14,9.18-.21,18.3c-.09,8.55-.14,17.1-.26,25.64a38.218,38.218,0,0,1-.52,4.12Z" transform="translate(-24.72 -148.8)" fill="#fff"/>
    <path id="Path_167" data-name="Path 167" d="M38.17,342.94c.15.73.3,1.45.44,2.18C38.47,344.39,38.32,343.67,38.17,342.94Z" transform="translate(-24.72 -148.8)" fill="#6b4228"/>
    <path id="Path_168" data-name="Path 168" d="M39.35,348.25l.45,1.66Z" transform="translate(-24.72 -148.8)" fill="#6b4228"/>
    <path id="Path_169" data-name="Path 169" d="M38.86,345.61l.21.46Z" transform="translate(-24.72 -148.8)" fill="#6b4228"/>
    <path id="Path_170" data-name="Path 170" d="M39.1,346.81c.07.16.14.31.2.46C39.24,347.12,39.17,347,39.1,346.81Z" transform="translate(-24.72 -148.8)" fill="#6b4228"/>
    <path id="Path_171" data-name="Path 171" d="M72.22,393.88a38.219,38.219,0,0,0,.48-4.12c.12-8.54.17-17.09.26-25.64q.11-9.17.24-18.32c.06-3.71.17-7.42.24-11.13.09-4.74.16-9.49.24-14.24l.24-14.13.24-14.36c.08-4.75.15-9.5.25-14.24,0-2.43.18-4.86.21-7.29a4.86,4.86,0,0,0-.47-1.39l.25-.49.5-.44a.909.909,0,0,0,.23,0l1.69-1.17a.781.781,0,0,0,.22,0c1.21-.61,2.41-1.24,3.63-1.82s2.66-1.19,4-1.79l1.8.11c-.11,1.42-.27,2.71-.3,4-.11,4.62-.18,9.24-.25,13.86q-.14,9.07-.24,18.17c0,1,.08,2.08,0,3.11s-.39,2.17-.58,3.25c-.12.66-.23,1.31-.34,2a.41.41,0,0,1,0,.19l-.47.52v.44l-.45.52c-1.73,4.16-3.67,8.25-5.11,12.52a98.546,98.546,0,0,0-2.8,11.45,60.413,60.413,0,0,0-1.13,8.36,79.484,79.484,0,0,0,.07,8.73c.13,2.53.47,5.05.81,7.57.24,1.84.58,3.68,1,5.49a34.289,34.289,0,0,0,1.17,4.4c.62,1.68,1.4,3.3,2.16,4.93,1.28,2.72,2.61,5.42,3.9,8.14a5.8,5.8,0,0,1,.29,1l-1.53-1.88a30.586,30.586,0,0,1,.35,3.41c0,4.34-.17,8.68-.2,13,0,1-.73,1.13-1.26,1.56-1.83-.68-3.7-1.27-5.48-2.07a40.3,40.3,0,0,1-3.86-2.21Z" transform="translate(-24.72 -148.8)" fill="#fff"/>
    <path id="Path_172" data-name="Path 172" d="M76.82,266.89l-1.69,1.17Z" transform="translate(-24.72 -148.8)" fill="#6b4228"/>
    <path id="Path_173" data-name="Path 173" d="M74.9,268.09l-.5.44Z" transform="translate(-24.72 -148.8)" fill="#6b4228"/>
    <path id="Path_174" data-name="Path 174" d="M73.19,269.28l-.46.42Z" transform="translate(-24.72 -148.8)" fill="#6b4228"/>
    <path id="Path_175" data-name="Path 175" d="M84.74,307.73c.11-.66.22-1.31.34-2,.19-1.08.47-2.16.58-3.25a29.323,29.323,0,0,0,0-3.11q.12-9.09.24-18.17c.07-4.62.14-9.24.25-13.86,0-1.3.19-2.59.3-4l-1.8-.11A20.622,20.622,0,0,1,87,261.78q3.73-1.66,7.54-3.17a28.427,28.427,0,0,1,3.07-.87c1.08,0,1,.82,1,1.54-.06,4.06-.16,8.12-.23,12.19-.09,5.29-.15,10.59-.25,15.89,0,.79-.14,1.58-.21,2.37-2.9,3.63-5.89,7.21-8.67,10.94-1.53,2.06-2.71,4.38-4.06,6.58a3.54,3.54,0,0,1-.45.48Z" transform="translate(-24.72 -148.8)" fill="#fff"/>
    <path id="Path_176" data-name="Path 176" d="M84.48,382.8l.44.49Z" transform="translate(-24.72 -148.8)" fill="#6b4228"/>
    <path id="Path_177" data-name="Path 177" d="M85.2,384l.44.48Z" transform="translate(-24.72 -148.8)" fill="#6b4228"/>
    <path id="Path_178" data-name="Path 178" d="M84.26,308.44l.47-.52Z" transform="translate(-24.72 -148.8)" fill="#6b4228"/>
    <path id="Path_179" data-name="Path 179" d="M83.78,309.4l.45-.52Z" transform="translate(-24.72 -148.8)" fill="#6b4228"/>
  </g>
</svg>
